<?xml version="1.0" encoding="UTF-8" standalone="no"?>
<svg
   width="79"
   height="48"
   viewBox="0 0 79 48"
   fill="none"
   version="1.1"
   id="svg35"
   sodipodi:docname="logo.svg"
   inkscape:version="1.3.2 (091e20e, 2023-11-25, custom)"
   xmlns:inkscape="http://www.inkscape.org/namespaces/inkscape"
   xmlns:sodipodi="http://sodipodi.sourceforge.net/DTD/sodipodi-0.dtd"
   xmlns:xlink="http://www.w3.org/1999/xlink"
   xmlns="http://www.w3.org/2000/svg"
   xmlns:svg="http://www.w3.org/2000/svg">
  <sodipodi:namedview
     id="namedview35"
     pagecolor="#ffffff"
     bordercolor="#000000"
     borderopacity="0.25"
     inkscape:showpageshadow="2"
     inkscape:pageopacity="0.0"
     inkscape:pagecheckerboard="0"
     inkscape:deskcolor="#d1d1d1"
     inkscape:zoom="6.9746835"
     inkscape:cx="39.5"
     inkscape:cy="24.015426"
     inkscape:window-width="1024"
     inkscape:window-height="697"
     inkscape:window-x="-8"
     inkscape:window-y="-8"
     inkscape:window-maximized="1"
     inkscape:current-layer="svg35" />
  <!-- { -->
  <path
     d="M10.2277 0V3.11647C9.36829 3.11647 8.69778 3.23924 8.21614 3.48478C7.7345 3.72087 7.52674 4.19778 7.59285 4.91552L8.03199 9.09441C8.14531 10.1521 8.02726 11.0068 7.67784 11.6584C7.33786 12.31 6.81373 12.8106 6.10544 13.16C5.4066 13.5 4.58026 13.7408 3.62643 13.8824C4.63692 14.0335 5.49159 14.2791 6.19044 14.6191C6.88928 14.959 7.39925 15.4501 7.72034 16.0923C8.04143 16.7345 8.14531 17.5939 8.03199 18.6705L7.59285 22.8494C7.52674 23.5671 7.7345 24.044 8.21614 24.2801C8.69778 24.5256 9.36829 24.6484 10.2277 24.6484V27.7649C7.62118 27.7649 5.78907 27.3682 4.73136 26.575C3.6831 25.7911 3.25812 24.4454 3.45644 22.5377L3.88142 18.4863C3.95697 17.7686 3.8342 17.2067 3.51311 16.8006C3.20146 16.3945 2.73871 16.1112 2.12486 15.9506C1.51101 15.7807 0.802726 15.6957 0 15.6957V12.0692C0.793282 12.0692 1.49685 11.9889 2.1107 11.8284C2.72455 11.6584 3.19202 11.3704 3.51311 10.9643C3.8342 10.5582 3.95697 9.9963 3.88142 9.27857L3.45644 5.25549C3.24868 3.31006 3.67365 1.95015 4.73136 1.17576C5.78907 0.391919 7.62118 0 10.2277 0Z"
     fill="url(#paint0_linear_3_20)"
     id="path1" />
  <!-- 007 -->
  <path
     d="M22.5052 3.66893C24.8473 3.66893 26.6133 4.57554 27.8032 6.38875C29.0026 8.19253 29.6023 10.7093 29.6023 13.9391C29.6023 17.1783 29.0026 19.714 27.8032 21.5461C26.6133 23.3688 24.8473 24.2801 22.5052 24.2801C20.1443 24.2801 18.3688 23.3688 17.1789 21.5461C15.9984 19.714 15.4082 17.1783 15.4082 13.9391C15.4082 10.7093 15.9984 8.19253 17.1789 6.38875C18.3688 4.57554 20.1443 3.66893 22.5052 3.66893ZM22.5052 6.91289C21.5042 6.91289 20.7723 7.45119 20.3095 8.52778C19.8468 9.59494 19.6154 11.3987 19.6154 13.9391C19.6154 14.7702 19.6296 15.5115 19.6579 16.1631C19.6863 16.8053 19.7288 17.3767 19.7854 17.8772L24.5734 7.86199C24.3468 7.50313 24.0635 7.25759 23.7235 7.12537C23.393 6.98372 22.9869 6.91289 22.5052 6.91289ZM25.3667 13.9391C25.3667 12.8531 25.3431 11.937 25.2959 11.1909L20.777 20.5262C20.9848 20.7245 21.2303 20.8614 21.5136 20.937C21.8064 21.0125 22.1369 21.0503 22.5052 21.0503C23.1758 21.0503 23.7188 20.8237 24.1343 20.3704C24.5593 19.9171 24.8709 19.171 25.0692 18.1322C25.2676 17.0839 25.3667 15.6862 25.3667 13.9391Z"
     fill="url(#paint1_linear_3_20)"
     id="path2" />
  <path
     d="M39.5 3.66893C41.8421 3.66893 43.6081 4.57554 44.798 6.38875C45.9974 8.19253 46.597 10.7093 46.597 13.9391C46.597 17.1783 45.9974 19.714 44.798 21.5461C43.6081 23.3688 41.8421 24.2801 39.5 24.2801C37.139 24.2801 35.3636 23.3688 34.1737 21.5461C32.9932 19.714 32.403 17.1783 32.403 13.9391C32.403 10.7093 32.9932 8.19253 34.1737 6.38875C35.3636 4.57554 37.139 3.66893 39.5 3.66893ZM39.5 6.91289C38.499 6.91289 37.7671 7.45119 37.3043 8.52778C36.8416 9.59494 36.6102 11.3987 36.6102 13.9391C36.6102 14.7702 36.6244 15.5115 36.6527 16.1631C36.681 16.8053 36.7235 17.3767 36.7802 17.8772L41.5682 7.86199C41.3415 7.50313 41.0582 7.25759 40.7183 7.12537C40.3877 6.98372 39.9816 6.91289 39.5 6.91289ZM42.3615 13.9391C42.3615 12.8531 42.3379 11.937 42.2907 11.1909L37.7718 20.5262C37.9795 20.7245 38.2251 20.8614 38.5084 20.937C38.8012 21.0125 39.1317 21.0503 39.5 21.0503C40.1705 21.0503 40.7135 20.8237 41.1291 20.3704C41.554 19.9171 41.8657 19.171 42.064 18.1322C42.2623 17.0839 42.3615 15.6862 42.3615 13.9391Z"
     fill="url(#paint2_linear_3_20)"
     id="path3" />
  <path
     d="M55.4748 24.2518L51.2251 22.9344L58.5488 7.53618H49.9218V4.16473H63.0818V7.1962L55.4748 24.2518Z"
     fill="url(#paint3_linear_3_20)"
     id="path4" />
  <!-- PanvanMG -->
  <path
     d="M9.99677 34.3013C10.7844 34.3013 11.419 34.4968 11.9006 34.8878C12.3823 35.2787 12.7336 35.8312 12.9546 36.5452C13.1812 37.2591 13.2946 38.1062 13.2946 39.0865C13.2946 40.0158 13.1586 40.8459 12.8866 41.5768C12.6146 42.3021 12.2208 42.8744 11.7052 43.2937C11.1895 43.7074 10.5634 43.9142 9.82678 43.9142C8.9485 43.9142 8.23454 43.5997 7.68491 42.9707V47.11L4.99908 47.3905V34.5988H7.37893L7.49793 35.6102C7.86624 35.1399 8.26854 34.8056 8.70485 34.6073C9.14115 34.4033 9.57179 34.3013 9.99677 34.3013ZM9.16382 36.2817C8.85217 36.2817 8.57736 36.3752 8.33937 36.5622C8.10139 36.7491 7.88323 37.0041 7.68491 37.3271V41.1349C7.8719 41.4125 8.06739 41.6165 8.27138 41.7468C8.48103 41.8771 8.72751 41.9423 9.01083 41.9423C9.4868 41.9423 9.85794 41.727 10.1243 41.2963C10.3906 40.86 10.5237 40.1348 10.5237 39.1205C10.5237 38.3725 10.4699 37.7946 10.3622 37.3866C10.2546 36.973 10.0988 36.6868 9.89477 36.5282C9.69078 36.3638 9.44713 36.2817 9.16382 36.2817Z"
     fill="url(#paint5_linear_3_20)"
     id="path5" />
  <path
     d="m 53.081122,41.0244 c 0,0.3399 0.0453,0.5864 0.136,0.7394 0.0963,0.153 0.2493,0.2692 0.4589,0.3485 l -0.5524,1.7679 c -0.5327,-0.051 -0.9831,-0.1672 -1.3514,-0.3485 -0.3627,-0.187 -0.6488,-0.4675 -0.8585,-0.8414 -0.3456,0.4136 -0.7876,0.7224 -1.3259,0.9264 -0.5383,0.1983 -1.0879,0.2975 -1.6489,0.2975 -0.9293,0 -1.6716,-0.2635 -2.2269,-0.7905 -0.5496,-0.5326 -0.8244,-1.2154 -0.8244,-2.0483 0,-0.9803 0.3825,-1.7368 1.1474,-2.2694 0.7706,-0.5326 1.8529,-0.7989 3.2468,-0.7989 h 1.2154 v -0.34 c 0,-0.9236 -0.5949,-1.3854 -1.7848,-1.3854 -0.289,0 -0.6602,0.0425 -1.1135,0.1275 -0.4533,0.0793 -0.9066,0.1954 -1.3599,0.3484 l -0.6204,-1.7848 c 0.5836,-0.221 1.1899,-0.3882 1.8188,-0.5015 0.6347,-0.1133 1.2013,-0.17 1.6999,-0.17 1.3429,0 2.3345,0.2748 2.9748,0.8244 0.646,0.544 0.969,1.3316 0.969,2.3629 z m -4.2158,0.9689 c 0.289,0 0.5922,-0.085 0.9095,-0.255 0.3173,-0.1756 0.5581,-0.4221 0.7224,-0.7394 V 39.537 h -0.6629 c -0.748,0 -1.2976,0.1161 -1.6489,0.3484 -0.3513,0.2267 -0.527,0.561 -0.527,1.003 0,0.3456 0.1049,0.6176 0.3145,0.8159 0.2153,0.1927 0.5128,0.289 0.8924,0.289 z"
     fill="url(#paint8_linear_3_20)"
     id="path6"
     style="fill:url(#paint8_linear_3_20)" />
  <path
     d="M22.7945 41.0244C22.7945 41.3643 22.8398 41.6108 22.9305 41.7638C23.0268 41.9168 23.1798 42.033 23.3894 42.1123L22.837 43.8802C22.3043 43.8292 21.8539 43.713 21.4855 43.5317C21.1229 43.3447 20.8368 43.0642 20.6271 42.6903C20.2815 43.1039 19.8395 43.4127 19.3012 43.6167C18.7629 43.815 18.2133 43.9142 17.6523 43.9142C16.723 43.9142 15.9807 43.6507 15.4254 43.1237C14.8758 42.5911 14.601 41.9083 14.601 41.0754C14.601 40.0951 14.9835 39.3386 15.7484 38.806C16.519 38.2734 17.6013 38.0071 18.9952 38.0071H20.2106V37.6671C20.2106 36.7435 19.6157 36.2817 18.4257 36.2817C18.1368 36.2817 17.7656 36.3242 17.3123 36.4092C16.859 36.4885 16.4057 36.6046 15.9524 36.7576L15.3319 34.9728C15.9156 34.7518 16.5219 34.5846 17.1508 34.4713C17.7854 34.358 18.3521 34.3013 18.8507 34.3013C20.1936 34.3013 21.1852 34.5761 21.8255 35.1257C22.4715 35.6697 22.7945 36.4573 22.7945 37.4886V41.0244ZM18.5787 41.9933C18.8677 41.9933 19.1709 41.9083 19.4882 41.7383C19.8055 41.5627 20.0463 41.3162 20.2106 40.9989V39.537H19.5477C18.7997 39.537 18.2501 39.6531 17.8988 39.8854C17.5475 40.1121 17.3718 40.4464 17.3718 40.8884C17.3718 41.234 17.4766 41.506 17.6863 41.7043C17.9016 41.897 18.1991 41.9933 18.5787 41.9933Z"
     fill="url(#paint6_linear_3_20)"
     id="path7" />
  <path
     d="m 24.566899,43.481824 v -9.0264 h 2.3459 l 0.187,1.0454 c 0.4023,-0.4533 0.8272,-0.7904 1.2749,-1.0114 0.4476,-0.221 0.9576,-0.3315 1.5299,-0.3315 0.7706,0 1.3769,0.2351 1.8189,0.7055 0.4419,0.4703 0.6629,1.1332 0.6629,1.9888 v 6.6296 h -2.6858 v -5.8561 c 0,-0.5553 -0.0623,-0.9406 -0.187,-1.156 -0.119,-0.2209 -0.3456,-0.3314 -0.68,-0.3314 -0.2833,0 -0.5552,0.0906 -0.8159,0.272 -0.255,0.1813 -0.51,0.4334 -0.7649,0.7564 v 6.3151 z"
     fill="url(#paint9_linear_3_20)"
     id="path9"
     style="fill:url(#paint9_linear_3_20)" />
  <path
     d="M68.7723 0C71.3788 0 73.2062 0.391919 74.2545 1.17576C75.3122 1.9596 75.7419 3.31006 75.5436 5.22716L75.1186 9.27857C75.043 9.9963 75.1658 10.5582 75.4869 10.9643C75.808 11.3704 76.2707 11.6584 76.8751 11.8284C77.489 11.9889 78.1973 12.0692 79 12.0692V15.6957C78.2067 15.6957 77.5032 15.7807 76.8893 15.9506C76.2755 16.1112 75.808 16.3945 75.4869 16.8006C75.1658 17.2067 75.043 17.7686 75.1186 18.4863L75.5436 22.5094C75.7608 24.4454 75.3358 25.8053 74.2686 26.5891C73.2109 27.373 71.3788 27.7649 68.7723 27.7649V24.6484C69.6412 24.6484 70.3164 24.5256 70.798 24.2801C71.2797 24.044 71.4827 23.5671 71.4072 22.8494L70.968 18.6705C70.8547 17.6033 70.968 16.7486 71.308 16.1065C71.6574 15.4548 72.1863 14.959 72.8946 14.6191C73.6028 14.2696 74.4339 14.0241 75.3877 13.8824C74.3772 13.7313 73.5179 13.4858 72.8096 13.1458C72.1107 12.8058 71.6008 12.3148 71.2797 11.6726C70.9586 11.021 70.8547 10.1616 70.968 9.09441L71.4072 4.91552C71.4827 4.19778 71.2749 3.72087 70.7839 3.48478C70.3022 3.23924 69.6317 3.11647 68.7723 3.11647V0Z"
     fill="url(#paint4_linear_3_20)"
     id="path11" />
  <!-- } -->
  <defs
     id="defs35">
    <linearGradient
       id="paint0_linear_3_20"
       x1="-1.66963"
       y1="29.9023"
       x2="81.4006"
       y2="0.496942"
       gradientUnits="userSpaceOnUse">
      <stop
         stop-color="#00C0FD"
         id="stop12" />
      <stop
         offset="1"
         stop-color="#E70FAA"
         id="stop13" />
    </linearGradient>
    <linearGradient
       id="paint1_linear_3_20"
       x1="-1.66963"
       y1="29.9023"
       x2="81.4006"
       y2="0.496942"
       gradientUnits="userSpaceOnUse">
      <stop
         stop-color="#00C0FD"
         id="stop14" />
      <stop
         offset="1"
         stop-color="#E70FAA"
         id="stop15" />
    </linearGradient>
    <linearGradient
       id="paint2_linear_3_20"
       x1="-1.66963"
       y1="29.9023"
       x2="81.4006"
       y2="0.496942"
       gradientUnits="userSpaceOnUse">
      <stop
         stop-color="#00C0FD"
         id="stop16" />
      <stop
         offset="1"
         stop-color="#E70FAA"
         id="stop17" />
    </linearGradient>
    <linearGradient
       id="paint3_linear_3_20"
       x1="-1.66963"
       y1="29.9023"
       x2="81.4006"
       y2="0.496942"
       gradientUnits="userSpaceOnUse">
      <stop
         stop-color="#00C0FD"
         id="stop18" />
      <stop
         offset="1"
         stop-color="#E70FAA"
         id="stop19" />
    </linearGradient>
    <linearGradient
       id="paint4_linear_3_20"
       x1="-1.66963"
       y1="29.9023"
       x2="81.4006"
       y2="0.496942"
       gradientUnits="userSpaceOnUse">
      <stop
         stop-color="#00C0FD"
         id="stop20" />
      <stop
         offset="1"
         stop-color="#E70FAA"
         id="stop21" />
    </linearGradient>
    <linearGradient
       id="paint5_linear_3_20"
       x1="-0.199074"
       y1="48.281"
       x2="76.2549"
       y2="32.108"
       gradientUnits="userSpaceOnUse">
      <stop
         stop-color="#13B0F5"
         id="stop22" />
      <stop
         offset="1"
         stop-color="#CA24B4"
         id="stop23" />
    </linearGradient>
    <linearGradient
       id="paint6_linear_3_20"
       x1="-0.199074"
       y1="48.281"
       x2="76.2549"
       y2="32.108"
       gradientUnits="userSpaceOnUse">
      <stop
         stop-color="#13B0F5"
         id="stop24" />
      <stop
         offset="1"
         stop-color="#CA24B4"
         id="stop25" />
    </linearGradient>
    <linearGradient
       id="paint7_linear_3_20"
       x1="-0.199074"
       y1="48.281"
       x2="76.2549"
       y2="32.108"
       gradientUnits="userSpaceOnUse"
       gradientTransform="translate(8.7459165,0.28675102)">
      <stop
         stop-color="#13B0F5"
         id="stop26" />
      <stop
         offset="1"
         stop-color="#CA24B4"
         id="stop27" />
    </linearGradient>
    <linearGradient
       id="paint8_linear_3_20"
       x1="-0.199074"
       y1="48.281"
       x2="76.2549"
       y2="32.108"
       gradientUnits="userSpaceOnUse"
       gradientTransform="translate(9.892922)">
      <stop
         stop-color="#13B0F5"
         id="stop28" />
      <stop
         offset="1"
         stop-color="#CA24B4"
         id="stop29" />
    </linearGradient>
    <linearGradient
       id="paint9_linear_3_20"
       x1="-0.199074"
       y1="48.281"
       x2="76.2549"
       y2="32.108"
       gradientUnits="userSpaceOnUse"
       gradientTransform="translate(-21.219601,-0.14337568)">
      <stop
         stop-color="#13B0F5"
         id="stop30" />
      <stop
         offset="1"
         stop-color="#CA24B4"
         id="stop31" />
    </linearGradient>
    <linearGradient
       id="paint10_linear_3_20"
       x1="-0.199074"
       y1="48.281"
       x2="76.2549"
       y2="32.108"
       gradientUnits="userSpaceOnUse">
      <stop
         stop-color="#13B0F5"
         id="stop32" />
      <stop
         offset="1"
         stop-color="#CA24B4"
         id="stop33" />
    </linearGradient>
    <linearGradient
       id="paint11_linear_3_20"
       x1="-0.199074"
       y1="48.281"
       x2="76.2549"
       y2="32.108"
       gradientUnits="userSpaceOnUse">
      <stop
         stop-color="#13B0F5"
         id="stop34" />
      <stop
         offset="1"
         stop-color="#CA24B4"
         id="stop35" />
    </linearGradient>
    <linearGradient
       inkscape:collect="always"
       xlink:href="#paint7_linear_3_20"
       id="linearGradient39"
       x1="56.712891"
       y1="35.582348"
       x2="60.796875"
       y2="35.582348"
       gradientUnits="userSpaceOnUse" />
    <linearGradient
       inkscape:collect="always"
       xlink:href="#paint10_linear_3_20"
       id="linearGradient41"
       x1="41.335869"
       y1="30.882454"
       x2="54.054291"
       y2="30.882454"
       gradientUnits="userSpaceOnUse"
       gradientTransform="matrix(1.0424952,0,0,1.0424952,0,-2.1779979)" />
  </defs>
  <text
     xml:space="preserve"
     style="white-space:pre;inline-size:6.9515;fill:url(#linearGradient39);fill-opacity:1;stroke-width:1.00013024;stroke-dasharray:none"
     x="55.629765"
     y="38.854809"
     id="text35"
     transform="matrix(1.9829908,0,0,1.6352856,-56.895255,-19.09225)"><tspan
       x="55.629765"
       y="38.854809"
       id="tspan1">r</tspan></text>
  <text
     xml:space="preserve"
     style="white-space:pre;inline-size:8.8125;fill:#000000;fill-opacity:1;stroke-width:1.801;stroke-dasharray:none"
     x="34.123413"
     y="38.854809"
     id="text39"><tspan
       x="34.123413"
       y="38.854809"
       id="tspan2">w</tspan></text>
  <text
     xml:space="preserve"
     style="font-size:18.0547px;fill:url(#linearGradient41);stroke-width:2.70972;stroke-dasharray:none"
     x="42.334293"
     y="34.940411"
     id="text40"
     transform="scale(0.7835958,1.2761681)"><tspan
       sodipodi:role="line"
       id="tspan40"
       x="42.334293"
       y="34.940411"
       style="fill:url(#linearGradient41);stroke-width:2.70972">w</tspan></text>
  <text
     xml:space="preserve"
     style="fill:#000000;fill-opacity:1;stroke-width:1.801;stroke-dasharray:none"
     x="67.673325"
     y="40.575317"
     id="text41"><tspan
       sodipodi:role="line"
       id="tspan41"
       x="67.673325"
       y="40.575317">.</tspan></text>
</svg>
