<?xml version="1.0" encoding="UTF-8" standalone="no"?>
<svg
   width="97"
   height="59"
   viewBox="0 0 97 59"
   fill="none"
   version="1.1"
   id="svg7"
   sodipodi:docname="logo2.svg"
   inkscape:version="1.3.2 (091e20e, 2023-11-25, custom)"
   xmlns:inkscape="http://www.inkscape.org/namespaces/inkscape"
   xmlns:sodipodi="http://sodipodi.sourceforge.net/DTD/sodipodi-0.dtd"
   xmlns:xlink="http://www.w3.org/1999/xlink"
   xmlns="http://www.w3.org/2000/svg"
   xmlns:svg="http://www.w3.org/2000/svg">
  <sodipodi:namedview
     id="namedview7"
     pagecolor="#ffffff"
     bordercolor="#000000"
     borderopacity="0.25"
     inkscape:showpageshadow="2"
     inkscape:pageopacity="0.0"
     inkscape:pagecheckerboard="0"
     inkscape:deskcolor="#d1d1d1"
     inkscape:zoom="5.6804124"
     inkscape:cx="48.5"
     inkscape:cy="29.487296"
     inkscape:window-width="1024"
     inkscape:window-height="697"
     inkscape:window-x="-8"
     inkscape:window-y="-8"
     inkscape:window-maximized="1"
     inkscape:current-layer="g7" />
  <g
     clip-path="url(#clip0_10_186)"
     id="g7">
    <!--<path d="M12.5581 0V3.83066C11.5028 3.83066 10.6796 3.98157 10.0882 4.28338C9.49679 4.57357 9.24169 5.15977 9.32287 6.04199L9.86206 11.1785C10.0012 12.4786 9.85626 13.5292 9.42722 14.3301C9.00978 15.131 8.36623 15.7464 7.49655 16.1758C6.63848 16.5938 5.62386 16.8897 4.45271 17.0638C5.69343 17.2495 6.74284 17.5514 7.60092 17.9693C8.45899 18.3871 9.08516 18.9907 9.47941 19.7801C9.87366 20.5695 10.0012 21.6258 9.86206 22.9492L9.32287 28.0857C9.24169 28.9679 9.49679 29.5541 10.0882 29.8443C10.6796 30.146 11.5028 30.297 12.5581 30.297V34.1277C9.35765 34.1277 7.1081 33.6401 5.80939 32.6651C4.52229 31.7016 4.00048 30.0475 4.24398 27.7026L4.76579 22.7227C4.85856 21.8406 4.70782 21.1499 4.31357 20.6507C3.93091 20.1516 3.36272 19.8033 2.60901 19.6059C1.85529 19.3971 0.985626 19.2926 0 19.2926V14.8351C0.97403 14.8351 1.8379 14.7364 2.59162 14.5391C3.34533 14.3301 3.91932 13.9761 4.31357 13.477C4.70782 12.9778 4.85856 12.2871 4.76579 11.4049L4.24398 6.45987C3.98889 4.06861 4.51068 2.39706 5.80939 1.4452C7.1081 0.481734 9.35765 0 12.5581 0Z" fill="#42446E"/>-->
    <!--<path d="M27.633 4.50977C30.5087 4.50977 32.6771 5.62414 34.1381 7.85288C35.6108 10.07 36.3471 13.1636 36.3471 17.1335C36.3471 21.115 35.6108 24.2318 34.1381 26.4838C32.6771 28.7242 30.5087 29.8443 27.633 29.8443C24.7342 29.8443 22.5541 28.7242 21.0931 26.4838C19.6436 24.2318 18.9189 21.115 18.9189 17.1335C18.9189 13.1636 19.6436 10.07 21.0931 7.85288C22.5541 5.62414 24.7342 4.50977 27.633 4.50977ZM27.633 8.49713C26.4039 8.49713 25.5052 9.15879 24.937 10.4821C24.3689 11.7938 24.0847 14.0109 24.0847 17.1335C24.0847 18.1551 24.1022 19.0663 24.1369 19.8672C24.1718 20.6566 24.224 21.3589 24.2935 21.9741L30.1724 9.66374C29.8942 9.22264 29.5463 8.92083 29.1289 8.75831C28.7231 8.5842 28.2244 8.49713 27.633 8.49713ZM31.1465 17.1335C31.1465 15.7986 31.1175 14.6726 31.0595 13.7555L25.511 25.2302C25.7662 25.4739 26.0676 25.6422 26.4154 25.7351C26.775 25.8279 27.1808 25.8744 27.633 25.8744C28.4564 25.8744 29.1231 25.5958 29.6333 25.0387C30.1551 24.4815 30.5377 23.5644 30.7812 22.2875C31.0248 20.999 31.1465 19.281 31.1465 17.1335Z" fill="#42446E"/>-->
    <!--<path d="M48.5 4.50977C51.3757 4.50977 53.5441 5.62414 55.0051 7.85288C56.4778 10.07 57.214 13.1636 57.214 17.1335C57.214 21.115 56.4778 24.2318 55.0051 26.4838C53.5441 28.7242 51.3757 29.8443 48.5 29.8443C45.601 29.8443 43.4211 28.7242 41.9601 26.4838C40.5106 24.2318 39.7859 21.115 39.7859 17.1335C39.7859 13.1636 40.5106 10.07 41.9601 7.85288C43.4211 5.62414 45.601 4.50977 48.5 4.50977ZM48.5 8.49713C47.2709 8.49713 46.3722 9.15879 45.804 10.4821C45.2359 11.7938 44.9518 14.0109 44.9518 17.1335C44.9518 18.1551 44.9692 19.0663 45.0039 19.8672C45.0387 20.6566 45.0909 21.3589 45.1605 21.9741L51.0394 9.66374C50.7611 9.22264 50.4132 8.92083 49.9959 8.75831C49.5899 8.5842 49.0913 8.49713 48.5 8.49713ZM52.0135 17.1335C52.0135 15.7986 51.9845 14.6726 51.9265 13.7555L46.378 25.2302C46.633 25.4739 46.9346 25.6422 47.2825 25.7351C47.642 25.8279 48.0478 25.8744 48.5 25.8744C49.3233 25.8744 49.99 25.5958 50.5003 25.0387C51.022 24.4815 51.4047 23.5644 51.6482 22.2875C51.8917 20.999 52.0135 19.281 52.0135 17.1335Z" fill="#42446E"/>-->
    <!--<path d="M68.1146 29.8095L62.8966 28.1902L71.889 9.26321H61.2964V5.11914H77.4549V8.84532L68.1146 29.8095Z" fill="#42446E"/>-->
    <path
       d="M84.442 0C87.6423 0 89.8861 0.481734 91.1733 1.4452C92.472 2.40867 92.9996 4.06862 92.7561 6.42505L92.2342 11.4049C92.1414 12.2871 92.2922 12.9778 92.6865 13.477C93.0807 13.9761 93.6488 14.3301 94.391 14.5391C95.1447 14.7364 96.0144 14.8351 97 14.8351V19.2926C96.026 19.2926 95.1622 19.3971 94.4084 19.6059C93.6547 19.8033 93.0807 20.1516 92.6865 20.6507C92.2922 21.1499 92.1414 21.8406 92.2342 22.7227L92.7561 27.6678C93.0228 30.0475 92.5009 31.719 91.1906 32.6824C89.8919 33.646 87.6423 34.1277 84.442 34.1277V30.297C85.5088 30.297 86.3379 30.146 86.9292 29.8443C87.5207 29.5541 87.7699 28.9679 87.6772 28.0857L87.1379 22.9492C86.9988 21.6374 87.1379 20.5868 87.5554 19.7976C87.9844 18.9965 88.6338 18.3871 89.5035 17.9693C90.3731 17.5397 91.3935 17.238 92.5647 17.0638C91.3239 16.8781 90.2688 16.5763 89.3991 16.1584C88.541 15.7405 87.9149 15.1369 87.5207 14.3476C87.1264 13.5466 86.9988 12.4903 87.1379 11.1785L87.6772 6.04199C87.7699 5.15977 87.5148 4.57357 86.9119 4.28338C86.3204 3.98157 85.4972 3.83066 84.442 3.83066V0Z"
       fill="#42446E"
       id="path1" />
    <!--
<path d="M184 520 c-53 -21 -124 -81 -124 -104 0 -21 23 -35 86 -52 33 -8 65
-21 73 -29 22 -22 -9 -51 -96 -92 -40 -18 -73 -38 -73 -43 0 -24 66 -6 154 40
52 27 97 50 100 50 3 0 3 -13 0 -30 -8 -36 7 -39 33 -7 21 26 72 67 84 67 4 0
5 -16 2 -35 -6 -40 16 -57 43 -34 14 11 18 11 29 -4 17 -24 27 -22 79 18 25
19 46 30 46 24 0 -24 -22 -48 -59 -62 -46 -19 -83 -66 -85 -109 -2 -50 22 -45
83 19 31 32 64 62 73 65 11 5 15 14 11 27 -3 12 2 39 11 61 21 53 20 57 -9 64
-27 7 -108 -22 -157 -56 l-28 -19 3 38 c3 46 -21 55 -64 24 -37 -28 -37 -14 0
33 41 52 68 123 52 139 -16 15 -39 -14 -81 -102 -30 -63 -44 -79 -83 -102 -16
-9 -18 -8 -13 8 11 35 -21 57 -99 68 -80 11 -86 14 -75 35 12 22 100 66 150
75 39 7 92 -8 88 -26 -2 -6 3 -14 10 -16 18 -7 15 52 -3 67 -27 22 -105 22
-161 0z m398 -230 c-18 -17 -38 -30 -45 -30 -6 1 4 14 23 30 45 39 65 38 22 0z
m-13 -107 c-31 -42 -53 -63 -66 -63 -20 0 4 43 35 63 35 22 48 21 31 0z"/>
<path d="M726 325 c-22 -21 -36 -45 -36 -60 0 -28 32 -49 63 -41 33 8 107 66
107 83 0 14 -3 13 -22 -1 -40 -29 -107 -60 -114 -53 -4 4 -1 18 6 32 14 25 40
39 75 40 34 0 24 30 -12 33 -25 3 -39 -4 -67 -33z"/>
-->
    <!--<path d="M91.1004 40.7517L91.8728 43.1754C91.4832 43.3287 91.0274 43.4401 90.5057 43.5097C89.9838 43.5794 89.3751 43.6142 88.6794 43.6142C89.3751 43.9137 89.9038 44.2863 90.2656 44.7321C90.6344 45.1708 90.8187 45.7489 90.8187 46.4664C90.8187 47.1837 90.6274 47.8245 90.2448 48.3886C89.862 48.9458 89.3195 49.3846 88.6168 49.705C87.9141 50.0254 87.0826 50.1856 86.1225 50.1856C85.6633 50.1856 85.2354 50.1438 84.8389 50.0602C84.7205 50.1229 84.6302 50.2133 84.5676 50.3318C84.5049 50.4502 84.4736 50.5721 84.4736 50.6975C84.4736 50.8716 84.5431 51.0283 84.6824 51.1675C84.8285 51.3069 85.1659 51.3765 85.6946 51.3765H87.5105C88.3732 51.3765 89.1176 51.5158 89.7438 51.7944C90.3769 52.0729 90.8674 52.4526 91.2153 52.9331C91.5631 53.4137 91.7371 53.964 91.7371 54.5839C91.7371 55.7191 91.2397 56.6141 90.2448 57.2688C89.2498 57.9234 87.7714 58.2509 85.8094 58.2509C84.3901 58.2509 83.2908 58.1046 82.5117 57.812C81.7393 57.5265 81.2002 57.1156 80.8941 56.5792C80.5949 56.0499 80.4453 55.4196 80.4453 54.6882H83.3673C83.3673 55.0087 83.43 55.2699 83.5552 55.4718C83.6874 55.6808 83.9344 55.8341 84.2962 55.9315C84.6649 56.029 85.1972 56.0778 85.8929 56.0778C86.5956 56.0778 87.1313 56.022 87.5 55.9107C87.8688 55.7992 88.1192 55.646 88.2515 55.4509C88.3906 55.2629 88.4602 55.0505 88.4602 54.8136C88.4602 54.4863 88.3314 54.2217 88.0741 54.0197C87.8166 53.8177 87.4097 53.7167 86.853 53.7167H85.0893C83.8926 53.7167 83.0229 53.4973 82.4803 53.0585C81.9376 52.6128 81.6663 52.0938 81.6663 51.5019C81.6663 51.091 81.7741 50.701 81.9898 50.3318C82.2124 49.9627 82.5221 49.6527 82.9187 49.402C82.209 49.0258 81.701 48.5836 81.3949 48.0752C81.0888 47.5598 80.9358 46.9434 80.9358 46.226C80.9358 45.3902 81.148 44.6729 81.5724 44.0739C81.9968 43.4679 82.5811 43.0013 83.3256 42.674C84.077 42.3467 84.9329 42.1829 85.8929 42.1829C86.7208 42.1968 87.441 42.1412 88.0532 42.0158C88.6654 41.8834 89.2151 41.7059 89.7021 41.4829C90.189 41.2531 90.6552 41.0093 91.1004 40.7517ZM85.9764 44.3246C85.4546 44.3246 85.0406 44.4918 84.7345 44.8262C84.4283 45.1535 84.2753 45.6062 84.2753 46.1843C84.2753 46.7971 84.4319 47.2673 84.745 47.5946C85.058 47.9219 85.4686 48.0857 85.9764 48.0857C87.1034 48.0857 87.667 47.4379 87.667 46.1425C87.667 44.9306 87.1034 44.3246 85.9764 44.3246Z" fill="#42446E"/>-->
    <path
       d="m 14.295331,43.811742 c 0.78763,0 1.42223,0.1955 1.90383,0.5865 0.4817,0.3909 0.833,0.9434 1.054,1.6574 0.2266,0.7139 0.34,1.561 0.34,2.5413 0,0.9293 -0.136,1.7594 -0.408,2.4903 -0.272,0.7253 -0.6658,1.2976 -1.1814,1.7169 -0.5157,0.4137 -1.1418,0.6205 -1.87842,0.6205 -0.87828,0 -1.59224,-0.3145 -2.14187,-0.9435 v 4.1393 l -2.6858305,0.2805 v -12.7917 h 2.3798505 l 0.119,1.0114 c 0.36831,-0.4703 0.77061,-0.8046 1.20692,-1.0029 0.4363,-0.204 0.86694,-0.306 1.29192,-0.306 z m -0.83295,1.9804 c -0.31165,0 -0.58646,0.0935 -0.82445,0.2805 -0.23798,0.1869 -0.45614,0.4419 -0.65446,0.7649 v 3.8078 c 0.18699,0.2776 0.38248,0.4816 0.58647,0.6119 0.20965,0.1303 0.45613,0.1955 0.73945,0.1955 0.47597,0 0.84711,-0.2153 1.11347,-0.646 0.2663,-0.4363 0.3994,-1.1615 0.3994,-2.1758 0,-0.748 -0.0538,-1.3259 -0.1615,-1.7339 -0.1076,-0.4136 -0.2634,-0.6998 -0.46743,-0.8584 -0.20399,-0.1644 -0.44764,-0.2465 -0.73095,-0.2465 z"
       fill="url(#paint5_linear_3_20)"
       id="path5-8"
       style="fill:url(#linearGradient74);fill-opacity:1" />
    <path
       d="m 57.379683,50.534842 c 0,0.3399 0.0453,0.5864 0.136,0.7394 0.0963,0.153 0.2493,0.2692 0.4589,0.3485 l -0.5524,1.7679 c -0.5327,-0.051 -0.9831,-0.1672 -1.3514,-0.3485 -0.3627,-0.187 -0.6488,-0.4675 -0.8585,-0.8414 -0.3456,0.4136 -0.7876,0.7224 -1.3259,0.9264 -0.5383,0.1983 -1.0879,0.2975 -1.6489,0.2975 -0.9293,0 -1.6716,-0.2635 -2.2269,-0.7905 -0.5496,-0.5326 -0.8244,-1.2154 -0.8244,-2.0483 0,-0.9803 0.3825,-1.7368 1.1474,-2.2694 0.7706,-0.5326 1.8529,-0.7989 3.2468,-0.7989 h 1.2154 v -0.34 c 0,-0.9236 -0.5949,-1.3854 -1.7848,-1.3854 -0.289,0 -0.6602,0.0425 -1.1135,0.1275 -0.4533,0.0793 -0.9066,0.1954 -1.3599,0.3484 l -0.6204,-1.7848 c 0.5836,-0.221 1.1899,-0.3882 1.8188,-0.5015 0.6347,-0.1133 1.2013,-0.17 1.6999,-0.17 1.3429,0 2.3345,0.2748 2.9748,0.8244 0.646,0.544 0.969,1.3316 0.969,2.3629 z m -4.2158,0.9689 c 0.289,0 0.5922,-0.085 0.9095,-0.255 0.3173,-0.1756 0.5581,-0.4221 0.7224,-0.7394 v -1.4619 h -0.6629 c -0.748,0 -1.2976,0.1161 -1.6489,0.3484 -0.3513,0.2267 -0.527,0.561 -0.527,1.003 0,0.3456 0.1049,0.6176 0.3145,0.8159 0.2153,0.1927 0.5128,0.289 0.8924,0.289 z"
       fill="url(#paint8_linear_3_20)"
       id="path6-1"
       style="fill:url(#linearGradient75);fill-opacity:1" />
    <path
       d="m 27.093061,50.534842 c 0,0.3399 0.0453,0.5864 0.136,0.7394 0.0963,0.153 0.2493,0.2692 0.4589,0.3485 l -0.5524,1.7679 c -0.5327,-0.051 -0.9831,-0.1672 -1.3515,-0.3485 -0.3626,-0.187 -0.6487,-0.4675 -0.8584,-0.8414 -0.3456,0.4136 -0.7876,0.7224 -1.3259,0.9264 -0.5383,0.1983 -1.0879,0.2975 -1.6489,0.2975 -0.9293,0 -1.6716,-0.2635 -2.2269,-0.7905 -0.5496,-0.5326 -0.8244,-1.2154 -0.8244,-2.0483 0,-0.9803 0.3825,-1.7368 1.1474,-2.2694 0.7706,-0.5326 1.8529,-0.7989 3.2468,-0.7989 h 1.2154 v -0.34 c 0,-0.9236 -0.5949,-1.3854 -1.7849,-1.3854 -0.2889,0 -0.6601,0.0425 -1.1134,0.1275 -0.4533,0.0793 -0.9066,0.1954 -1.3599,0.3484 l -0.6205,-1.7848 c 0.5837,-0.221 1.19,-0.3882 1.8189,-0.5015 0.6346,-0.1133 1.2013,-0.17 1.6999,-0.17 1.3429,0 2.3345,0.2748 2.9748,0.8244 0.646,0.544 0.969,1.3316 0.969,2.3629 z m -4.2158,0.9689 c 0.289,0 0.5922,-0.085 0.9095,-0.255 0.3173,-0.1756 0.5581,-0.4221 0.7224,-0.7394 v -1.4619 h -0.6629 c -0.748,0 -1.2976,0.1161 -1.6489,0.3484 -0.3513,0.2267 -0.527,0.561 -0.527,1.003 0,0.3456 0.1048,0.6176 0.3145,0.8159 0.2153,0.1927 0.5128,0.289 0.8924,0.289 z"
       fill="url(#paint6_linear_3_20)"
       id="path7-9"
       style="fill:url(#linearGradient76);fill-opacity:1" />
    <path
       d="m 28.86546,52.992266 v -9.0264 h 2.3459 l 0.187,1.0454 c 0.4023,-0.4533 0.8272,-0.7904 1.2749,-1.0114 0.4476,-0.221 0.9576,-0.3315 1.5299,-0.3315 0.7706,0 1.3769,0.2351 1.8189,0.7055 0.4419,0.4703 0.6629,1.1332 0.6629,1.9888 v 6.6296 h -2.6858 v -5.8561 c 0,-0.5553 -0.0623,-0.9406 -0.187,-1.156 -0.119,-0.2209 -0.3456,-0.3314 -0.68,-0.3314 -0.2833,0 -0.5552,0.0906 -0.8159,0.272 -0.255,0.1813 -0.51,0.4334 -0.7649,0.7564 v 6.3151 z"
       fill="url(#paint9_linear_3_20)"
       id="path9"
       style="fill:url(#linearGradient77);fill-opacity:1" />
    <text
       xml:space="preserve"
       style="white-space:pre;inline-size:6.9515;fill:url(#linearGradient78);fill-opacity:1;stroke-width:1.00013;stroke-dasharray:none"
       x="55.629765"
       y="38.854809"
       id="text35"
       transform="matrix(1.9829908,0,0,1.6352856,-52.596694,-9.5818079)"><tspan
         x="55.629765"
         y="38.854809"
         id="tspan2">r</tspan></text>
    <text
       xml:space="preserve"
       style="font-size:18.0547px;fill:url(#linearGradient79);stroke-width:2.70972;stroke-dasharray:none;fill-opacity:1"
       x="47.146"
       y="42.668644"
       id="text40"
       transform="scale(0.78359582,1.2761681)"><tspan
         sodipodi:role="line"
         id="tspan40"
         x="47.146"
         y="42.668644"
         style="fill:url(#linearGradient79);stroke-width:2.70972;fill-opacity:1">w</tspan></text>
  </g>
  <defs
     id="defs7">
    <linearGradient
       id="linearGradient80"
       inkscape:collect="always">
      <stop
         style="stop-color:#42446e;stop-opacity:1;"
         offset="0.33112583"
         id="stop79" />
      <stop
         style="stop-color:#42446e;stop-opacity:0;"
         offset="1"
         id="stop80" />
    </linearGradient>
    <linearGradient
       id="linearGradient73"
       inkscape:collect="always">
      <stop
         style="stop-color:#42446e;stop-opacity:1;"
         offset="0"
         id="stop73" />
      <stop
         style="stop-color:#42446e;stop-opacity:0;"
         offset="1"
         id="stop74" />
    </linearGradient>
    <clipPath
       id="clip0_10_186">
      <rect
         width="97"
         height="59"
         fill="white"
         id="rect7" />
    </clipPath>
    <linearGradient
       id="paint5_linear_3_20"
       x1="-0.199074"
       y1="48.280998"
       x2="76.254898"
       y2="32.108002"
       gradientUnits="userSpaceOnUse">
      <stop
         stop-color="#13B0F5"
         id="stop22" />
      <stop
         offset="1"
         stop-color="#CA24B4"
         id="stop23" />
    </linearGradient>
    <linearGradient
       id="paint8_linear_3_20"
       x1="-0.199074"
       y1="48.280998"
       x2="76.254898"
       y2="32.108002"
       gradientUnits="userSpaceOnUse"
       gradientTransform="translate(14.191483,9.5104423)"
       inkscape:swatch="gradient">
      <stop
         stop-color="#13B0F5"
         id="stop28" />
      <stop
         offset="1"
         stop-color="#CA24B4"
         id="stop29" />
    </linearGradient>
    <linearGradient
       id="paint9_linear_3_20"
       x1="-0.199074"
       y1="48.280998"
       x2="76.254898"
       y2="32.108002"
       gradientUnits="userSpaceOnUse"
       gradientTransform="translate(-16.92104,9.3670663)"
       inkscape:swatch="gradient">
      <stop
         stop-color="#13B0F5"
         id="stop30" />
      <stop
         offset="1"
         stop-color="#CA24B4"
         id="stop31" />
    </linearGradient>
    <linearGradient
       id="paint7_linear_3_20"
       x1="-0.199074"
       y1="48.280998"
       x2="76.254898"
       y2="32.108002"
       gradientUnits="userSpaceOnUse"
       gradientTransform="translate(8.7459165,0.28675102)"
       inkscape:swatch="gradient">
      <stop
         stop-color="#13B0F5"
         id="stop26" />
      <stop
         offset="1"
         stop-color="#CA24B4"
         id="stop27" />
    </linearGradient>
    <linearGradient
       inkscape:collect="always"
       xlink:href="#linearGradient73"
       id="linearGradient74"
       x1="9.2976405"
       y1="50.356342"
       x2="17.593161"
       y2="50.356342"
       gradientUnits="userSpaceOnUse" />
    <linearGradient
       inkscape:collect="always"
       xlink:href="#linearGradient73"
       id="linearGradient75"
       x1="49.186183"
       y1="48.618192"
       x2="57.974583"
       y2="48.618192"
       gradientUnits="userSpaceOnUse" />
    <linearGradient
       inkscape:collect="always"
       xlink:href="#linearGradient73"
       id="linearGradient76"
       x1="18.899561"
       y1="48.618192"
       x2="27.687961"
       y2="48.618192"
       gradientUnits="userSpaceOnUse" />
    <linearGradient
       inkscape:collect="always"
       xlink:href="#linearGradient73"
       id="linearGradient77"
       x1="28.86546"
       y1="48.330316"
       x2="36.68496"
       y2="48.330316"
       gradientUnits="userSpaceOnUse" />
    <linearGradient
       inkscape:collect="always"
       xlink:href="#linearGradient73"
       id="linearGradient78"
       x1="56.712891"
       y1="35.582348"
       x2="60.796875"
       y2="35.582348"
       gradientUnits="userSpaceOnUse" />
    <linearGradient
       inkscape:collect="always"
       xlink:href="#linearGradient80"
       id="linearGradient79"
       x1="47.904156"
       y1="37.745035"
       x2="61.163077"
       y2="37.745035"
       gradientUnits="userSpaceOnUse" />
  </defs>
</svg>
